<svg width="32" height="32" fill="none" xmlns="http://www.w3.org/2000/svg"><circle cx="16" cy="16" r="16" fill="#00E164"/><path fill-rule="evenodd" clip-rule="evenodd" d="M22.203 10.748c-.162.25-.475.339-.76.252l-3.21-.973c-.273-.082-.477-.313-.482-.598-.006-.287.02-.66.15-.983.105-.264.23-.473.34-.628.151-.212.424-.272.673-.196l3.2.97c.312.094.529.38.51.705a4.45 4.45 0 01-.099.774c-.058.232-.193.478-.322.677zm-10.16 1.431c.285.086.597-.003.76-.253.129-.198.264-.445.322-.676a4.46 4.46 0 00.1-.774.704.704 0 00-.512-.706l-3.2-.97c-.249-.075-.52-.015-.672.197-.11.154-.235.364-.341.628-.129.322-.155.696-.15.983.005.285.21.516.483.598l3.21.973zm9.772 8.194A4.502 4.502 0 0020.75 11.5a4.5 4.5 0 00-.985 8.892 2.49 2.49 0 01-.962 1.346 3.46 3.46 0 01-1.928.637c-.39 0-.622-.037-.766-.075a1.121 1.121 0 01-.329-.148 1 1 0 00-1.06 1.696c.512.32 1.092.527 2.155.527.941 0 2.12-.306 3.103-1.019a4.5 4.5 0 001.837-2.983zM20.75 17.75a1.75 1.75 0 100-3.5 1.75 1.75 0 000 3.5zm-5 0a4.5 4.5 0 11-9 0 4.5 4.5 0 019 0zm-4.5 1.75a1.75 1.75 0 100-3.5 1.75 1.75 0 000 3.5z" fill="#fff"/></svg>