<svg width="32" height="32" viewBox="0 0 32 32" fill="none" xmlns="http://www.w3.org/2000/svg">
<circle cx="16" cy="16" r="16" fill="#00E164"/>
<path fill-rule="evenodd" clip-rule="evenodd" d="M22.2031 10.7475C22.0406 10.9974 21.7284 11.0867 21.4432 11.0003L18.2331 10.0275C17.9603 9.94488 17.7557 9.71428 17.7506 9.42929C17.7455 9.14227 17.7714 8.76824 17.9002 8.4463C18.0058 8.18238 18.1314 7.97263 18.2413 7.81834C18.3925 7.60619 18.6646 7.54605 18.9139 7.6216L22.1137 8.59122C22.4259 8.68582 22.6427 8.97152 22.6246 9.29723C22.6105 9.55005 22.5821 9.8439 22.5252 10.0713C22.4674 10.3027 22.3319 10.5493 22.2031 10.7475ZM12.0429 12.179C12.3281 12.2655 12.6404 12.1761 12.8028 11.9262C12.9317 11.728 13.0671 11.4814 13.125 11.25C13.1818 11.0226 13.2102 10.7288 13.2243 10.476C13.2425 10.1502 13.0256 9.86455 12.7134 9.76994L9.51368 8.80032C9.26437 8.72478 8.99224 8.78491 8.84108 8.99707C8.73115 9.15135 8.60551 9.36111 8.49995 9.62503C8.37117 9.94697 8.34522 10.321 8.35033 10.608C8.3554 10.893 8.56004 11.1236 8.83282 11.2063L12.0429 12.179ZM21.8148 20.3733C23.7861 19.895 25.25 18.1185 25.25 16C25.25 13.5147 23.2353 11.5 20.75 11.5C18.2647 11.5 16.25 13.5147 16.25 16C16.25 18.147 17.7535 19.9427 19.765 20.3919C19.5904 20.9937 19.233 21.4258 18.8034 21.7375C18.1925 22.1807 17.4337 22.375 16.875 22.375C16.4843 22.375 16.2533 22.3385 16.1094 22.2999C15.9779 22.2646 15.888 22.2195 15.78 22.152C15.3117 21.8593 14.6947 22.0017 14.402 22.47C14.1093 22.9384 14.2517 23.5553 14.72 23.848C15.2316 24.1678 15.8117 24.375 16.875 24.375C17.8163 24.375 18.995 24.0694 19.9779 23.3563C20.8706 22.7087 21.5988 21.7226 21.8148 20.3733ZM20.75 17.75C21.7165 17.75 22.5 16.9665 22.5 16C22.5 15.0335 21.7165 14.25 20.75 14.25C19.7835 14.25 19 15.0335 19 16C19 16.9665 19.7835 17.75 20.75 17.75ZM15.75 17.75C15.75 20.2353 13.7353 22.25 11.25 22.25C8.76472 22.25 6.75 20.2353 6.75 17.75C6.75 15.2647 8.76472 13.25 11.25 13.25C13.7353 13.25 15.75 15.2647 15.75 17.75ZM11.25 19.5C12.2165 19.5 13 18.7165 13 17.75C13 16.7835 12.2165 16 11.25 16C10.2835 16 9.5 16.7835 9.5 17.75C9.5 18.7165 10.2835 19.5 11.25 19.5Z" fill="white"/>
</svg>
